<?xml version="1.0" encoding="UTF-8"?>
<svg xmlns="http://www.w3.org/2000/svg" xmlns:xlink="http://www.w3.org/1999/xlink" width="40pt" height="40pt" viewBox="0 0 40 40" version="1.1">
<g id="surface1">
<path style=" stroke:none;fill-rule:nonzero;fill:rgb(21.568627%,42.745098%,71.372549%);fill-opacity:1;" d="M 7.464844 19.167969 L 32.398438 19.167969 L 32.398438 24.300781 L 7.464844 24.300781 Z M 7.464844 19.167969 "/>
<path style=" stroke:none;fill-rule:nonzero;fill:rgb(29.803922%,63.529412%,85.490196%);fill-opacity:1;" d="M 7.464844 12.535156 L 32.398438 12.535156 L 32.398438 17.667969 L 7.464844 17.667969 Z M 7.464844 12.535156 "/>
<path style=" stroke:none;fill-rule:nonzero;fill:rgb(56.862745%,84.705882%,95.686275%);fill-opacity:1;" d="M 28.5 5.667969 L 11.464844 5.667969 C 9.265625 5.667969 7.464844 7.5 7.464844 9.765625 L 7.464844 11.101562 L 32.398438 11.101562 L 32.398438 9.765625 C 32.398438 7.5 30.667969 5.667969 28.5 5.667969 Z M 28.5 5.667969 "/>
<path style=" stroke:none;fill-rule:nonzero;fill:rgb(11.764706%,32.54902%,59.215686%);fill-opacity:1;" d="M 7.464844 25.765625 L 7.464844 27.101562 C 7.464844 29.367188 9.265625 31.199219 11.464844 31.199219 L 22.132812 31.199219 L 22.132812 36.632812 L 27.398438 31.199219 L 28.566406 31.199219 C 30.765625 31.199219 32.566406 29.367188 32.566406 27.101562 L 32.566406 25.765625 Z M 7.464844 25.765625 "/>
</g>
</svg>
